<svg width="1024" height="1024" version="1.1" xmlns="http://www.w3.org/2000/svg" desc="Created with imagetracer.js version 1.2.6" ><path fill="rgb(0,92,219)" stroke="rgb(0,92,219)" stroke-width="1" opacity="0.20392156862745098" d="M 494.5 234 L 522.5 234 L 539 239 L 540 245 L 543 246.5 Q 541.5 253.5 544.5 253 L 550 263.5 L 550 266.5 L 553 270.5 L 553 276 L 556 277.5 Q 554.8 283.6 557.5 283 Q 560.5 284.6 559 290 Q 561.7 288.9 561 291.5 L 566 300.5 L 566 305 L 569 306.5 L 569 311.5 Q 573.3 314 572 321 L 575 322.5 Q 573.8 328.6 576.5 328 L 578 329.5 L 579 337 L 582 338.5 Q 580.1 343.9 583.5 343 Q 586.5 344.6 585 350 L 588 351.5 Q 586.8 357.6 589.5 357 L 591 358.5 L 591 366 Q 595.1 364.3 594 368.5 L 598 376.5 L 598 382 L 601 383.5 Q 599.1 388.9 602.5 388 Q 605.3 389.3 604 394.5 L 607 397.5 L 607 404 Q 611.1 402.3 610 406.5 L 617 420.5 L 617 426 L 620 427.5 Q 618.8 433.6 621.5 433 Q 624.3 434.3 623 439.5 L 626 442.5 L 627 449 Q 629.7 447.9 629 450.5 L 632 452 L 633.5 449 Q 637.9 450.5 637 447.5 L 641 444.5 L 642.5 442 Q 644.8 442.8 644 440.5 L 647 439 L 648.5 436 L 651 434.5 L 651 433 L 654 433 L 654 430 L 657 430 Q 655.5 426.3 658.5 427 L 661 421.5 L 660 418 L 657 418 L 657 415 L 654 415 Q 655.7 410.9 651.5 412 L 650 409 L 647 407.5 L 645.5 405 L 644 405 Q 645.5 401.3 642.5 402 L 641 399 L 638 397.5 Q 638.8 395.3 636.5 396 L 635 393 L 631 390.5 Q 631.8 388.3 629.5 389 L 628 386 L 625 384.5 Q 625.8 382.3 623.5 383 L 622 380 Q 618.2 381.5 619 378.5 L 615 373 Q 612.3 374.1 613 371.5 L 612 369 Q 609.3 370.1 610 367.5 L 609 362.5 L 607 360.5 L 607 354 Q 610.5 355.1 609 347.5 L 612 346 L 613.5 343 Q 615.8 343.8 615 341.5 Q 616 339 620.5 340 L 623.5 337 L 630.5 337 L 632 340 Q 637.4 338.5 639 341.5 L 640.5 344 Q 642.8 343.3 642 345.5 L 645 347 L 646.5 350 L 649 351.5 Q 648.3 353.8 650.5 353 L 652 356 L 655 357.5 Q 654.3 359.8 656.5 359 L 658 362 L 662 364.5 Q 661.3 366.8 663.5 366 L 665 369 L 668 370.5 Q 667.3 372.8 669.5 372 L 671 375 L 674 376.5 L 675.5 379 Q 677.8 378.3 677 380.5 L 681 383.5 Q 680.3 385.8 682.5 385 L 684 388 L 687 389.5 Q 686.3 391.8 688.5 391 L 690 394 L 694 396.5 Q 693.3 398.8 695.5 398 L 697 401 L 700 402.5 Q 699.3 404.8 701.5 404 L 703 407 L 706 408.5 L 706 410.5 L 710 414.5 L 710 430.5 L 707.5 434 L 706 434 Q 707.5 437.8 704.5 437 L 701.5 441 Q 699.3 440.3 700 442.5 L 697 444 L 695.5 447 L 693 448.5 Q 693.8 450.8 691.5 450 L 690 453 L 687 454.5 Q 687.8 456.8 685.5 456 L 680 460 L 678.5 463 Q 676.3 462.3 677 464.5 L 674 466 L 672.5 469 Q 670.3 468.3 671 470.5 L 668 472 L 661 482 L 658 483.5 Q 658.8 485.8 656.5 485 L 653.5 489 Q 651.3 488.3 652 490.5 L 648 493.5 Q 648.8 495.8 646.5 495 L 645 498 L 642 498 Q 643.5 501.7 640.5 501 L 632.5 508 L 628 508 Q 629.1 510.7 626.5 510 L 625.5 511 L 610.5 511 L 609 508 Q 604.3 509 603 505.5 L 602 501 Q 599.3 502.1 600 499.5 L 599 498.5 L 599 492 L 596 490.5 Q 597.3 484.4 594.5 485 Q 592 484 593 479.5 L 590 476.5 L 589 471.5 L 586 468.5 L 586 463 L 583 461.5 L 583 457.5 L 580 454.5 L 580 449.5 L 577 446.5 Q 578.3 441.3 575.5 440 Q 572.5 440.9 574 436.5 L 573 432.5 L 570 429.5 L 570 425 L 567 423.5 Q 568.3 417.4 565.5 418 Q 562.8 416.8 564 411.5 L 561 408.5 L 561 403 L 558 401.5 L 557 396 Q 554.3 397.1 555 394.5 L 554 389 Q 551.3 390.1 552 387.5 Q 549.7 386.3 551 381.5 L 549.5 380 L 548 380 L 548 373.5 L 546.5 373 Q 544 372 545 367.5 L 538 356.5 L 538 351 L 535 349.5 L 535 344.5 L 533 344 L 533 342.5 L 532 341.5 L 532 335 L 529 333.5 Q 530.3 327.4 527.5 328 L 526 326.5 L 525 319 L 522 317.5 L 522 313.5 L 519 310.5 L 519 306.5 L 516 303.5 Q 517.3 298.3 514.5 297 Q 511.5 297.7 513 294 L 511 294 L 510 299 Q 507 297.8 508 301.5 L 505 303 Q 505.9 309.2 504 312 Q 500 310.6 502 317.5 Q 497.7 320.9 498 328 L 495 329.5 L 495 334.5 L 492 338.5 Q 493 343 490.5 344 Q 487.5 343.5 489 350.5 L 486 353.5 L 485 360 Q 482.3 358.9 483 361.5 L 480.5 367 Q 477.8 366.4 479 372.5 L 478 375 L 476 375.5 L 476 383.5 L 471 393.5 L 482.5 394 L 488.5 391 L 502.5 391 Q 504 393.5 509.5 392 L 512.5 394 L 542.5 394 L 546 396.5 L 547 406.5 L 545 411 Q 541 409.6 543 416.5 L 540 418 Q 540.9 424.2 539 427 Q 536 425.8 537 429.5 L 534 431 L 532.5 434 Q 526.3 434.3 523.5 438 L 451.5 438 L 450 439.5 Q 451.5 443.9 448.5 443 Q 445.8 444.3 447 449.5 L 444 452.5 L 444 457 L 441 458.5 Q 441.8 462.3 439.5 463 Q 437.3 462.3 438 464.5 L 435.5 467 L 429.5 469 Q 427.6 465.4 423 466 Q 424.7 461.9 420.5 463 L 414 459 Q 415.1 456.3 412.5 457 L 407 453 L 407 450 L 404 450 Q 405.5 446.3 402.5 447 L 401 445.5 L 401 433 L 404 431.5 L 404 426.5 L 407 423.5 L 407 419.5 L 410 416.5 L 410 412.5 L 414 406.5 L 414 403.5 L 417 400.5 Q 416 396 418.5 395 Q 421.3 395.6 420 389.5 L 423 388 L 423 383.5 L 426 380.5 L 426 376.5 L 429 373.5 L 430 367.5 L 431.5 366 Q 434.3 366.6 433 360.5 L 436 359 L 436 353.5 L 437.5 353 L 439 351.5 Q 438.4 346.1 440 344 Q 443.7 345.4 442 339.5 L 443 337 Q 446 338.3 445 334.5 L 447.5 330 Q 450.3 330.6 449 324.5 L 450 322 Q 454 323.4 452 316.5 L 455 315 Q 453.5 309.6 456.5 308 Q 459.3 308.6 458 302.5 L 463.5 292 Q 466.3 292.6 465 286.5 L 468 285 L 468 278.5 L 471 275.5 Q 470 271 472.5 270 Q 475.9 270.9 474 265.5 L 477 261.5 L 478 254 Q 483.3 255.8 481 248.5 Q 485.3 247 484 241 L 487 239.5 Q 486.3 237.3 488.5 238 L 494.5 234 Z M 494 239 L 492 240 L 486 249 L 460 313 L 436 366 L 407 434 L 405 439 L 405 443 L 427 461 L 434 463 L 441 449 L 447 432 L 450 431 L 529 431 L 533 426 L 540 411 L 543 404 L 543 399 L 541 398 L 483 398 L 482 399 L 466 399 L 463 398 L 464 392 Q 488 338 510 283 L 513 281 L 607 503 L 611 505 L 628 505 L 633 501 L 706 428 L 707 424 Q 706 417 703 414 L 632 342 L 629 341 L 623 342 L 610 356 L 611 362 L 618 370 L 669 423 L 668 425 L 630 462 L 535 243 L 530 239 L 494 239 Z " /><path fill="rgb(0,92,219)" stroke="rgb(0,92,219)" stroke-width="1" opacity="0.20392156862745098" d="M 393.5 337 Q 400.3 335.3 402 338.5 Q 401.1 341.5 405.5 340 L 408 341 L 409.5 344 Q 411.8 343.3 411 345.5 L 415 348.5 L 415 353 Q 419.5 351.3 418 356.5 L 419 360.5 L 417 366 L 415 366 L 415 370 Q 410.9 368.3 412 372.5 L 409 374 L 407.5 377 Q 405.3 376.3 406 378.5 L 402 381.5 L 402 383 L 399 383 Q 400.5 386.7 397.5 386 L 394.5 390 Q 392.3 389.3 393 391.5 L 390 393 L 388.5 396 L 386 397.5 L 386 399 L 383 399 Q 384.5 402.8 381.5 402 L 376 411 L 373 412.5 L 371.5 415 L 370 415 L 370 418 L 367 418 Q 368.5 421.7 365.5 421 L 361 424 Q 359.9 426.7 362.5 426 L 365.5 430 Q 368.5 429.2 367 433 L 369.5 433 L 374 436 L 375.5 439 L 377 439 Q 375.5 442.7 378.5 442 L 380 445 L 390 452 L 393 458 L 395.5 458 L 402 463.5 Q 401.3 465.8 403.5 465 L 405 468 L 415 475 L 415 478 L 418 478 Q 416.5 481.7 419.5 481 Q 423.9 484.1 422 493.5 L 418 498.5 L 418 501 L 411 505 Q 412.1 507.7 409.5 507 L 397.5 510 Q 396.2 506.7 390.5 508 L 385 503.5 Q 385.8 501.3 383.5 502 L 380.5 498 Q 378.3 498.8 379 496.5 L 375 493.5 Q 375.8 491.3 373.5 492 L 372 489 L 369 487.5 L 367.5 485 Q 365.3 485.8 366 483.5 L 363 482 L 361.5 479 L 359 477.5 Q 359.8 475.3 357.5 476 L 356 473 L 353 471.5 L 351.5 469 Q 349.3 469.8 350 467.5 L 346 464.5 Q 346.8 462.3 344.5 463 L 343 460 L 340 458.5 Q 340.8 456.3 338.5 457 L 337 454 L 334 452.5 L 332.5 450 L 330 448.5 Q 330.8 446.3 328.5 447 L 327 444 L 324 442.5 Q 324.8 440.3 322.5 441 L 321 438 L 318 436.5 L 316.5 434 Q 314.3 434.8 315 432.5 L 314 431.5 L 314 414.5 L 318 408 L 321 406.5 L 322.5 404 Q 324.8 404.8 324 402.5 L 328 399.5 Q 327.3 397.3 329.5 398 L 331 395 L 341 387.5 L 344 382 L 347 380.5 Q 346.3 378.3 348.5 379 L 350 376 L 351.5 376 L 363 364.5 Q 362.3 362.3 364.5 363 L 376 351.5 L 376 350 L 379 348.5 Q 378.3 346.3 380.5 347 L 383.5 343 Q 385.8 338.9 392 340 L 393.5 337 Z M 396 341 L 317 419 Q 316 426 318 430 L 390 501 Q 393 507 405 505 L 418 491 L 417 486 L 405 473 Q 402 474 403 472 L 355 426 L 355 424 L 414 363 L 413 354 L 402 342 L 396 341 Z " /><path fill="rgb(0,92,219)" stroke="rgb(0,92,219)" stroke-width="1" opacity="0.20392156862745098" d="M 196.5 606 L 212.5 607 L 214.5 609 Q 219 608 220 610.5 Q 219.3 612.8 221.5 612 L 223 613.5 L 223 621 L 226 622.5 Q 226.3 628.7 230 631.5 L 230 638 L 233 639.5 L 233 646.5 L 234.5 647 Q 237.5 648.5 236 654.5 L 239 657.5 L 239 663 L 242 664.5 Q 242 671.5 246 674.5 L 246 678.5 L 249 681.5 L 249 686.5 L 252 689.5 L 252 695 L 255 696.5 L 255 702.5 L 257 703 L 257 704.5 L 259 711.5 L 261 713.5 L 261 716.5 L 258 722 L 252.5 725 L 245.5 726 L 232 720.5 Q 231.7 715.4 228 713.5 L 228 706 L 225 706 L 225 700.5 L 224.5 700 L 185 700 L 185 708.5 L 176.5 722 L 168.5 726 L 160.5 726 L 158 725 Q 159.3 722 155.5 723 L 151 720.5 L 151 709.5 L 154 705.5 L 154 700.5 L 157 697.5 L 158 691.5 L 161 688.5 L 161 683.5 L 164 680.5 Q 162.5 674.5 165.5 673 Q 168.5 673.5 167 666.5 L 168 664 Q 172 665.4 170 658.5 L 173 657 L 174 648.5 L 175.5 647 Q 178.3 647.6 177 641.5 L 178 639 L 180 638.5 L 180 631.5 L 183 628.5 Q 181.8 621.8 186 620.5 Q 185.3 614.4 187 612 Q 189.7 613.1 189 610.5 Q 190.2 608 194 609 Q 192.9 606.3 195.5 607 L 196.5 606 Z M 196 611 L 193 612 L 154 718 L 157 719 L 173 719 L 177 714 L 183 696 L 185 694 L 226 694 Q 231 702 233 714 L 238 719 L 254 719 L 256 718 L 256 715 L 250 702 L 217 612 L 215 611 L 196 611 Z " /><path fill="rgb(0,92,219)" stroke="rgb(0,92,219)" stroke-width="1" opacity="0.20392156862745098" d="M 275.5 606 L 311.5 607 L 314.5 609 L 354 609 L 355.5 612 Q 357.8 611.3 357 613.5 L 358 614.5 L 358 626.5 L 357 629 Q 354.3 627.9 355 630.5 L 354 633 Q 350.2 631.5 351 634.5 L 348 636 L 346.5 639 L 345 639 Q 346.5 642.8 343.5 642 L 341 649 L 338 650.5 Q 338.7 653.5 335 652 L 335 658 Q 330.5 656.3 332 661.5 L 327.5 668 Q 324.9 667.2 326 670.5 L 320.5 678 Q 317.5 677.1 319 681.5 L 316 683 L 314.5 687 Q 312.3 686.3 313 688.5 L 309 691.5 Q 309.8 693.8 307.5 693 Q 305 694.2 306 698 Q 311.4 698.9 313.5 695 L 319.5 695 L 324.5 698 L 348.5 698 L 351.5 697 L 355.5 698 L 358 700.5 L 358 717.5 L 356.5 719 Q 353.2 717.9 354 720.5 L 349.5 723 Q 341.4 721.4 338.5 725 L 286.5 725 L 283.5 723 Q 274.5 724 270 722 L 270 719 L 266 719 L 266 717.5 Q 263.2 715.8 264 710.5 L 266 708.5 L 266 702.5 L 270 697.5 L 270 695 Q 274.9 696.8 273 690.5 L 276 689 L 277.5 686 Q 280.5 686.9 279 682.5 L 280 680 Q 282.7 681.1 282 678.5 L 283 676 L 286 676 Q 284.5 671.5 289 673 L 289 668.5 L 292 667 L 293.5 663 Q 296.1 663.8 295 660.5 L 296 658 Q 298.7 659.1 298 656.5 L 299 654 L 302 652.5 L 303.5 650 Q 306.1 650.8 305 647.5 L 309.5 641 Q 311.8 641.8 311 639.5 L 314 638 L 313.5 633 L 274.5 633 L 273 629 L 270 627.5 L 270 610.5 L 271.5 609 L 275.5 606 Z M 276 612 L 274 614 L 274 628 L 278 630 L 279 629 L 324 629 L 271 704 Q 268 707 270 716 L 273 718 L 277 719 L 347 719 L 350 718 L 352 715 Q 350 706 353 703 L 352 701 L 298 701 L 303 692 L 353 624 L 352 613 L 350 612 L 276 612 Z " /><path fill="rgb(0,92,219)" stroke="rgb(0,92,219)" stroke-width="1" opacity="0.20392156862745098" d="M 378.5 606 L 384.5 608 L 390.5 608 L 392.5 608 L 398 610 L 399 612.5 L 399 636.5 Q 394.5 639 396 647.5 L 401 643.5 L 402.5 641 Q 404.8 641.8 404 639.5 L 407 638 L 408.5 634 Q 411.1 634.8 410 631.5 L 412.5 628 Q 415.5 628.7 414 625 L 417 625 L 417 622 L 420 622 L 420 619.5 L 423 618 L 424.5 615 Q 426.8 615.8 426 613.5 L 430 612 L 430 609 L 437.5 609 L 441.5 606 L 454.5 606 L 460 610.5 L 460 618.5 L 458.5 620 Q 456.3 619.3 457 621.5 L 454 623 L 452.5 626 Q 450.3 625.3 451 627.5 L 450 630 L 447 631.5 Q 447.8 635.3 445.5 636 Q 443.3 635.3 444 637.5 L 441 639 L 441 642 Q 436.9 640.3 438 644.5 L 434 647.5 L 434 649 Q 430.3 647.5 431 650.5 L 428 652 L 426.5 655 L 424 656.5 Q 424.7 659.1 422 658 L 422 660 L 425 661.5 L 426.5 664 L 428 664 L 428 669 L 429.5 669 L 431 673 L 434 673 Q 432.5 676.8 435.5 676 L 438.5 680 Q 440.8 679.3 440 681.5 L 441 686 L 444 686 Q 442.5 689.7 445.5 689 L 447 692 L 450 693.5 L 451 698 L 454 699.5 Q 452.9 702.8 455.5 702 L 460 707.5 L 460 710 Q 462.7 708.9 462 711.5 Q 464.3 712.8 463 717.5 L 460 719 Q 461.7 723.1 457.5 722 L 450.5 726 L 444.5 726 L 439.5 723 L 433 722 L 433 719 Q 429.2 720.5 430 717.5 L 426 714.5 L 420 705.5 L 420 703 L 417 701.5 Q 417.8 699.3 415.5 700 L 410 692.5 L 410 690 L 407 688.5 Q 409.1 682.6 404.5 684 Q 403.3 680.3 399 681 L 397.5 684 Q 394.8 683.4 396 689.5 L 399 693.5 L 399 716.5 L 394.5 722 L 389.5 723 L 384.5 726 L 376.5 726 L 372 723.5 Q 372.8 721.3 370.5 722 L 369 720.5 L 369 678.5 Q 371.5 677 370 671.5 L 372 667.5 L 372 655.5 L 370 652.5 L 369 611.5 L 378.5 606 Z M 379 611 L 376 612 L 374 614 L 374 719 L 390 719 L 393 718 L 394 717 L 394 681 L 403 674 L 431 713 L 439 719 L 455 719 L 459 716 L 417 660 L 417 658 L 423 651 L 455 616 L 456 612 L 454 611 L 438 611 L 433 613 Q 416 635 396 655 L 394 653 L 394 613 L 393 611 L 379 611 Z " /><path fill="rgb(0,92,219)" stroke="rgb(0,92,219)" stroke-width="1" opacity="0.20392156862745098" d="M 513.5 606 L 514.5 607 L 525.5 607 L 528.5 609 Q 534.5 607.5 536 610.5 L 537 619 L 540 620.5 L 540 627.5 L 541.5 628 Q 544.3 629.3 543 634.5 L 546 637.5 Q 546 644.5 550 647.5 L 550 654 L 553 655.5 L 553 662.5 L 554.5 663 Q 557.5 664.6 556 670 L 559 671.5 L 559 678.5 L 562 679 L 562 680.5 L 563 686 L 566 687.5 L 566 692.5 L 568 693 L 568 694.5 L 569 695.5 L 569 702 L 572 703.5 Q 570.5 711 575 712.5 L 575 719.5 L 574 722 L 571.5 722 L 565.5 726 L 556.5 726 L 545 720.5 Q 546.9 715.1 543.5 716 Q 540.3 713.7 541 707.5 L 538 703.5 L 538 700 L 501.5 700 L 501 701.5 L 499 703.5 L 498 711.5 L 496.5 713 Q 493.1 712.1 495 717.5 L 492 719 L 490.5 722 L 487.5 722 L 480.5 726 L 475.5 726 L 472 725 Q 473.3 721.7 468.5 723 L 465 722 L 465 708.5 L 466 706 L 468 706 L 468 699.5 L 469.5 699 L 471 697.5 Q 470.3 691.4 472 689 Q 475.7 690.4 474 684.5 L 477 681.5 L 478 674.5 L 479.5 673 Q 482.5 673.5 481 666.5 L 484 663.5 Q 482.8 656.8 487 655.5 L 487 649.5 L 490 646.5 L 490 641.5 L 493 637.5 L 494 631 L 497 629.5 L 497 622.5 L 500 619.5 Q 498 611 502.5 609 L 513.5 606 Z M 510 611 L 507 612 L 470 710 L 468 718 L 471 719 L 486 719 L 488 718 L 491 713 L 497 696 L 498 694 L 539 694 L 541 697 L 548 717 L 551 719 L 555 720 Q 565 722 570 718 L 532 614 L 529 611 L 510 611 Z " /><path fill="rgb(0,92,219)" stroke="rgb(0,92,219)" stroke-width="1" opacity="0.20392156862745098" d="M 591.5 606 L 616.5 607 L 623.5 609 L 640.5 609 L 642 610.5 L 642.5 612 L 652.5 612 L 655.5 615 L 661 616 Q 659.9 618.7 662.5 618 L 665 622 L 668 623.5 Q 667.3 625.8 669.5 625 L 678 636.5 Q 677 642.5 681 643.5 L 681 655 Q 683.7 653.9 683 656.5 L 684 657.5 L 684 672.5 L 681 674 L 681 688.5 L 679.5 690 Q 676.1 689.1 678 694.5 L 674 697 L 674 700 Q 670.2 698.5 671 701.5 L 668 703 L 668 706 Q 663.9 704.3 665 708.5 L 661 711.5 L 661 713 Q 657.3 711.5 658 714.5 Q 657 717 652.5 716 L 649.5 719 L 641 719 Q 642.1 721.7 639.5 721 L 638.5 722 L 606.5 723 L 605.5 722 L 588.5 722 Q 587.3 718.3 583 719 L 581 713.5 Q 584.5 712 582 710.5 L 580 705.5 L 580 692.5 L 583 685.5 L 583 610.5 L 584.5 609 L 588 609 Q 586.8 606 590.5 607 L 591.5 606 Z M 588 612 L 588 713 L 587 714 L 588 718 L 634 718 L 646 715 L 658 708 Q 673 697 677 676 L 677 653 Q 674 638 666 629 L 657 620 L 640 613 L 635 612 L 588 612 Z " /><path fill="rgb(0,92,219)" stroke="rgb(0,92,219)" stroke-width="1" opacity="0.20392156862745098" d="M 704.5 606 Q 713 605 716.5 609 L 761.5 609 L 764 611.5 L 764 630.5 L 761.5 633 L 741.5 633 L 738.5 636 L 722 636 L 720.5 639 L 719 639.5 L 719 649.5 L 722 651 L 722.5 653 L 736.5 653 L 738.5 651 L 747.5 650 L 758 655.5 Q 757 661.5 761 662.5 L 761 670.5 L 758.5 674 L 749.5 675 L 746.5 677 L 725.5 677 L 722 678 L 722 694.5 L 723.5 696 L 759.5 695 L 763 696 L 764.5 699 L 767 700.5 L 767 717.5 L 765.5 719 Q 761 718.5 760.5 722 L 748.5 722 L 746.5 723 L 745.5 722 L 697.5 722 L 694.5 719 Q 690 720 689 717.5 L 689 615.5 L 690 613 Q 693 614.3 692 610.5 Q 693.5 607.5 699.5 609 L 704.5 606 Z M 697 612 L 695 614 L 695 716 L 696 718 L 759 718 L 762 716 L 762 702 L 761 700 L 716 700 L 716 673 L 751 673 L 754 671 Q 755 662 753 657 L 752 655 L 718 655 L 716 654 L 716 632 L 718 630 L 758 630 L 760 629 L 761 627 L 760 615 L 758 612 L 697 612 Z " /><path fill="rgb(0,92,219)" stroke="rgb(0,92,219)" stroke-width="1" opacity="0.20392156862745098" d="M 782.5 606 L 790.5 606 Q 793.5 610.7 802 609 L 802 611.5 L 806 616.5 L 806 621.5 L 809 624.5 L 809 630.5 L 812 633.5 L 812 641 L 815 642.5 L 815 649.5 L 816.5 650 Q 819.9 652.6 819 659.5 L 822 662.5 L 822 670.5 Q 825.6 671.9 825.5 677 L 831 661 Q 835 662.4 833 655.5 L 836 652.5 Q 834.3 645.8 837.5 644 L 839 643.5 L 839 636.5 L 842 635 L 842 627.5 L 845 624.5 L 845 619.5 L 847 613 Q 850 614.3 849 610.5 Q 850 608 854.5 609 L 857.5 606 L 867.5 606 L 876 610.5 L 876 625.5 L 873 628.5 L 873 635.5 L 870 638.5 L 869 645 Q 865.3 643.6 867 649.5 L 864.5 655 L 863 655.5 L 863 662.5 L 860 665.5 L 860 671.5 L 857 674.5 L 857 680.5 L 854 684.5 L 853 691.5 L 848.5 700 L 847 700 L 847 708.5 L 845.5 709 L 842.5 716 Q 839.5 715.2 841 719 L 839 719 Q 840.1 721.7 837.5 721 L 830.5 723 L 823.5 723 Q 821.7 720.3 815.5 722 L 814 720.5 Q 814.9 717.5 810.5 719 L 808 718 Q 806.1 715.2 807 709 L 804 707.5 L 804 700.5 Q 799 698.3 801 690 L 798 688.5 L 797 681.5 L 794 678.5 L 794 671 Q 791.3 672.1 792 669.5 L 791 668.5 L 791 661 L 788 659.5 L 788 652.5 L 786.5 652 Q 783.5 650.5 785 644.5 L 782 641.5 Q 782 635.5 778 633.5 L 778 629.5 L 775 625.5 L 775 620.5 L 772 617.5 L 772 611.5 L 774.5 609 L 782.5 606 Z M 783 611 L 778 614 L 779 621 L 790 649 L 813 716 L 817 718 L 835 718 L 837 717 L 839 714 L 850 683 L 873 616 L 873 612 L 870 611 L 857 611 L 855 612 L 851 618 L 851 621 L 849 624 L 827 691 L 823 685 L 799 614 Q 794 609 783 611 Z " /><path fill="rgb(0,92,219)" stroke="rgb(0,92,219)" stroke-width="1" opacity="0.20392156862745098" d="M 611.5 628 L 625.5 628 L 626.5 629 L 637.5 630 Q 645.6 632.9 650 639.5 L 653 644.5 L 656 655.5 L 656 671.5 L 654 680.5 L 650 688.5 L 641.5 697 L 631.5 701 L 613.5 702 L 608 701 L 608 629.5 L 610.5 629 L 611.5 628 Z M 616 632 L 611 633 L 611 654 L 613 657 L 613 667 L 614 668 L 614 694 L 613 695 L 614 698 L 629 698 L 629 696 L 632 695 Q 638 696 637 694 L 641 692 L 643 689 Q 646 690 644 686 L 647 686 L 647 682 L 650 679 L 651 670 L 653 667 L 653 661 L 650 652 L 650 647 Q 647 646 647 642 L 641 638 L 641 636 L 635 636 L 635 635 L 634 633 L 619 633 L 616 632 Z " /><path fill="rgb(0,92,219)" stroke="rgb(0,92,219)" stroke-width="1" opacity="0.20392156862745098" d="M 204.5 633 L 219 676 L 193.5 676 L 190 673.5 L 204.5 633 Z M 204 652 L 204 654 L 201 655 L 201 660 L 198 663 Q 199 669 196 671 L 197 673 L 209 673 L 209 670 L 212 670 Q 213 663 209 661 L 209 655 L 206 654 Q 207 651 204 652 Z " /><path fill="rgb(0,92,219)" stroke="rgb(0,92,219)" stroke-width="1" opacity="0.20392156862745098" d="M 518.5 633 L 533 676 L 506.5 676 L 504 675 L 518.5 633 Z M 518 651 Q 517 658 513 662 L 511 663 L 511 673 L 522 673 L 523 672 Q 522 669 525 670 L 525 662 L 523 661 Q 521 658 522 652 L 518 651 Z " /><path fill="rgb(0,0,0)" stroke="rgb(0,0,0)" stroke-width="1" opacity="0" d="M 0 0 L 1024 0 L 1024 1024 L 0 1024 L 0 0 Z M 495 234 L 489 238 Q 486 237 487 240 L 484 241 Q 485 247 481 249 Q 483 256 478 254 L 477 262 L 474 266 Q 476 271 473 270 Q 470 271 471 276 L 468 279 L 468 285 L 465 287 Q 466 293 464 292 L 458 303 Q 459 309 457 308 Q 453 310 455 315 L 452 317 Q 454 323 450 322 L 449 325 Q 450 331 448 330 L 445 335 Q 446 338 443 337 L 442 340 Q 444 345 440 344 Q 438 346 439 352 L 438 353 L 436 354 L 436 359 L 433 361 Q 434 367 432 366 L 430 368 L 429 374 L 426 377 L 426 381 L 423 384 L 423 388 L 420 390 Q 421 396 419 395 Q 416 396 417 401 L 414 404 L 414 407 L 410 413 L 410 417 L 407 420 L 407 424 L 404 427 L 404 432 L 401 433 L 401 446 L 403 447 Q 406 446 404 450 L 407 450 L 407 453 L 413 457 Q 415 456 414 459 L 421 463 Q 425 462 423 466 Q 428 465 430 469 L 436 467 L 438 465 Q 437 462 440 463 Q 442 462 441 459 L 444 457 L 444 453 L 447 450 Q 446 444 449 443 Q 452 444 450 440 L 452 438 L 524 438 Q 526 434 533 434 L 534 431 L 537 430 Q 536 426 539 427 Q 541 424 540 418 L 543 417 Q 541 410 545 411 L 547 407 L 546 397 L 543 394 L 513 394 L 510 392 Q 504 394 503 391 L 489 391 L 483 394 L 471 394 L 476 384 L 476 376 L 478 375 L 479 373 Q 478 366 481 367 L 483 362 Q 482 359 485 360 L 486 354 L 489 351 Q 487 343 491 344 Q 493 343 492 339 L 495 335 L 495 330 L 498 328 Q 498 321 502 318 Q 500 311 504 312 Q 506 309 505 303 L 508 302 Q 507 298 510 299 L 511 294 L 513 294 Q 511 298 515 297 Q 517 298 516 304 L 519 307 L 519 311 L 522 314 L 522 318 L 525 319 L 526 327 L 528 328 Q 530 327 529 334 L 532 335 L 532 342 L 533 343 L 533 344 L 535 345 L 535 350 L 538 351 L 538 357 L 545 368 Q 544 372 547 373 L 548 374 L 548 380 L 550 380 L 551 382 Q 550 386 552 388 Q 551 390 554 389 L 555 395 Q 554 397 557 396 L 558 402 L 561 403 L 561 409 L 564 412 Q 563 417 566 418 Q 568 417 567 424 L 570 425 L 570 430 L 573 433 L 574 437 Q 572 441 576 440 Q 578 441 577 447 L 580 450 L 580 455 L 583 458 L 583 462 L 586 463 L 586 469 L 589 472 L 590 477 L 593 480 Q 592 484 595 485 Q 597 484 596 491 L 599 492 L 599 499 L 600 500 Q 599 502 602 501 L 603 506 Q 604 509 609 508 L 611 511 L 626 511 L 627 510 Q 629 511 628 508 L 633 508 L 641 501 Q 644 502 642 498 L 645 498 L 647 495 Q 649 496 648 494 L 652 491 Q 651 488 654 489 L 657 485 Q 659 486 658 484 L 661 482 L 668 472 L 671 471 Q 670 468 673 469 L 674 466 L 677 465 Q 676 462 679 463 L 680 460 L 686 456 Q 688 457 687 455 L 690 453 L 692 450 Q 694 451 693 449 L 696 447 L 697 444 L 700 443 Q 699 440 702 441 L 705 437 Q 708 438 706 434 L 708 434 L 710 431 L 710 415 L 706 411 L 706 409 L 703 407 L 702 404 Q 699 405 700 403 L 697 401 L 696 398 Q 693 399 694 397 L 690 394 L 689 391 Q 686 392 687 390 L 684 388 L 683 385 Q 680 386 681 384 L 677 381 Q 678 378 676 379 L 674 377 L 671 375 L 670 372 Q 667 373 668 371 L 665 369 L 664 366 Q 661 367 662 365 L 658 362 L 657 359 Q 654 360 655 358 L 652 356 L 651 353 Q 648 354 649 352 L 647 350 L 645 347 L 642 346 Q 643 343 641 344 L 639 342 Q 637 339 632 340 L 631 337 L 624 337 L 621 340 Q 616 339 615 342 Q 616 344 614 343 L 612 346 L 609 348 Q 611 355 607 354 L 607 361 L 609 363 L 610 368 Q 609 370 612 369 L 613 372 Q 612 374 615 373 L 619 379 Q 618 382 622 380 L 624 383 Q 626 382 625 385 L 628 386 L 630 389 Q 632 388 631 391 L 635 393 L 637 396 Q 639 395 638 398 L 641 399 L 643 402 Q 646 401 644 405 L 646 405 L 647 408 L 650 409 L 652 412 Q 656 411 654 415 L 657 415 L 657 418 L 660 418 L 661 422 L 659 427 Q 656 426 657 430 L 654 430 L 654 433 L 651 433 L 651 435 L 649 436 L 647 439 L 644 441 Q 645 443 643 442 L 641 445 L 637 448 Q 638 451 634 449 L 632 452 L 629 451 Q 630 448 627 449 L 626 443 L 623 440 Q 624 434 622 433 Q 619 434 620 428 L 617 426 L 617 421 L 610 407 Q 611 402 607 404 L 607 398 L 604 395 Q 605 389 603 388 Q 599 389 601 384 L 598 382 L 598 377 L 594 369 Q 595 364 591 366 L 591 359 L 590 357 Q 587 358 588 352 L 585 350 Q 586 345 584 343 Q 580 344 582 339 L 579 337 L 578 330 L 577 328 Q 574 329 575 323 L 572 321 Q 573 314 569 312 L 569 307 L 566 305 L 566 301 L 561 292 Q 562 289 559 290 Q 560 285 558 283 Q 555 284 556 278 L 553 276 L 553 271 L 550 267 L 550 264 L 545 253 Q 541 253 543 247 L 540 245 L 539 239 L 523 234 L 495 234 Z M 394 337 L 392 340 Q 386 339 384 343 L 381 347 Q 378 346 379 349 L 376 350 L 376 352 L 365 363 Q 362 362 363 365 L 352 376 L 350 376 L 349 379 Q 346 378 347 381 L 344 382 L 341 388 L 331 395 L 330 398 Q 327 397 328 400 L 324 403 Q 325 405 323 404 L 321 407 L 318 408 L 314 415 L 314 432 L 315 433 Q 314 435 317 434 L 318 437 L 321 438 L 323 441 Q 325 440 324 443 L 327 444 L 329 447 Q 331 446 330 449 L 333 450 L 334 453 L 337 454 L 339 457 Q 341 456 340 459 L 343 460 L 345 463 Q 347 462 346 465 L 350 468 Q 349 470 352 469 L 353 472 L 356 473 L 358 476 Q 360 475 359 478 L 362 479 L 363 482 L 366 484 Q 365 486 368 485 L 369 488 L 372 489 L 374 492 Q 376 491 375 494 L 379 497 Q 378 499 381 498 L 384 502 Q 386 501 385 504 L 391 508 Q 396 507 398 510 L 410 507 Q 412 508 411 505 L 418 501 L 418 499 L 422 494 Q 424 484 420 481 Q 417 482 418 478 L 415 478 L 415 475 L 405 468 L 404 465 Q 401 466 402 464 L 396 458 L 393 458 L 390 452 L 380 445 L 379 442 Q 376 443 377 439 L 376 439 L 374 436 L 370 433 L 367 433 Q 368 429 366 430 L 363 426 Q 360 427 361 424 L 366 421 Q 368 422 367 418 L 370 418 L 370 415 L 372 415 L 373 413 L 376 411 L 382 402 Q 384 403 383 399 L 386 399 L 386 398 L 389 396 L 390 393 L 393 392 Q 392 389 395 390 L 398 386 Q 401 387 399 383 L 402 383 L 402 382 L 406 379 Q 405 376 408 377 L 409 374 L 412 373 Q 411 368 415 370 L 415 366 L 417 366 L 419 361 L 418 357 Q 420 351 415 353 L 415 349 L 411 346 Q 412 343 410 344 L 408 341 L 406 340 Q 401 341 402 339 Q 400 335 394 337 Z M 197 606 L 196 607 Q 193 606 194 609 Q 190 608 189 611 Q 190 613 187 612 Q 185 614 186 621 Q 182 622 183 629 L 180 632 L 180 639 L 178 639 L 177 642 Q 178 648 176 647 L 174 649 L 173 657 L 170 659 Q 172 665 168 664 L 167 667 Q 168 673 166 673 Q 162 674 164 681 L 161 684 L 161 689 L 158 692 L 157 698 L 154 701 L 154 706 L 151 710 L 151 721 L 156 723 Q 159 722 158 725 L 161 726 L 169 726 L 177 722 L 185 709 L 185 700 L 225 700 L 225 701 L 225 706 L 228 706 L 228 714 Q 232 715 232 721 L 246 726 L 253 725 L 258 722 L 261 717 L 261 714 L 259 712 L 257 705 L 257 703 L 255 703 L 255 697 L 252 695 L 252 690 L 249 687 L 249 682 L 246 679 L 246 675 Q 242 672 242 665 L 239 663 L 239 658 L 236 655 Q 237 648 235 647 L 233 647 L 233 640 L 230 638 L 230 632 Q 226 629 226 623 L 223 621 L 223 614 L 222 612 Q 219 613 220 611 Q 219 608 215 609 L 213 607 L 197 606 Z M 276 606 L 272 609 L 270 611 L 270 628 L 273 629 L 275 633 L 314 633 L 314 638 L 311 640 Q 312 642 310 641 L 305 648 Q 306 651 304 650 L 302 653 L 299 654 L 298 657 Q 299 659 296 658 L 295 661 Q 296 664 294 663 L 292 667 L 289 669 L 289 673 Q 285 672 286 676 L 283 676 L 282 679 Q 283 681 280 680 L 279 683 Q 280 687 278 686 L 276 689 L 273 691 Q 275 697 270 695 L 270 698 L 266 703 L 266 709 L 264 711 Q 263 716 266 718 L 266 719 L 270 719 L 270 722 Q 275 724 284 723 L 287 725 L 339 725 Q 341 721 350 723 L 354 721 Q 353 718 357 719 L 358 718 L 358 701 L 356 698 L 352 697 L 349 698 L 325 698 L 320 695 L 314 695 Q 311 699 306 698 Q 305 694 308 693 Q 310 694 309 692 L 313 689 Q 312 686 315 687 L 316 683 L 319 682 Q 317 677 321 678 L 326 671 Q 325 667 328 668 L 332 662 Q 331 656 335 658 L 335 652 Q 339 653 338 651 L 341 649 L 344 642 Q 347 643 345 639 L 347 639 L 348 636 L 351 635 Q 350 631 354 633 L 355 631 Q 354 628 357 629 L 358 627 L 358 615 L 357 614 Q 358 611 356 612 L 354 609 L 315 609 L 312 607 L 276 606 Z M 379 606 L 369 612 L 370 653 L 372 656 L 372 668 L 370 672 Q 372 677 369 679 L 369 721 L 371 722 Q 373 721 372 724 L 377 726 L 385 726 L 390 723 L 395 722 L 399 717 L 399 694 L 396 690 Q 395 683 398 684 L 399 681 Q 403 680 405 684 Q 409 683 407 689 L 410 690 L 410 693 L 416 700 Q 418 699 417 702 L 420 703 L 420 706 L 426 715 L 430 718 Q 429 721 433 719 L 433 722 L 440 723 L 445 726 L 451 726 L 458 722 Q 462 723 460 719 L 463 718 Q 464 713 462 712 Q 463 709 460 710 L 460 708 L 456 702 Q 453 703 454 700 L 451 698 L 450 694 L 447 692 L 446 689 Q 442 690 444 686 L 441 686 L 440 682 Q 441 679 439 680 L 436 676 Q 433 677 434 673 L 431 673 L 430 669 L 428 669 L 428 664 L 427 664 L 425 662 L 422 660 L 422 658 Q 425 659 424 657 L 427 655 L 428 652 L 431 651 Q 430 647 434 649 L 434 648 L 438 645 Q 437 640 441 642 L 441 639 L 444 638 Q 443 635 446 636 Q 448 635 447 632 L 450 630 L 451 628 Q 450 625 453 626 L 454 623 L 457 622 Q 456 619 459 620 L 460 619 L 460 611 L 455 606 L 442 606 L 438 609 L 430 609 L 430 612 L 426 614 Q 427 616 425 615 L 423 618 L 420 620 L 420 622 L 417 622 L 417 625 L 414 625 Q 415 629 413 628 L 410 632 Q 411 635 409 634 L 407 638 L 404 640 Q 405 642 403 641 L 401 644 L 396 648 Q 395 639 399 637 L 399 613 L 398 610 L 393 608 L 391 608 L 385 608 L 379 606 Z M 514 606 L 503 609 Q 498 611 500 620 L 497 623 L 497 630 L 494 631 L 493 638 L 490 642 L 490 647 L 487 650 L 487 656 Q 483 657 484 664 L 481 667 Q 482 673 480 673 L 478 675 L 477 682 L 474 685 Q 476 690 472 689 Q 470 691 471 698 L 470 699 L 468 700 L 468 706 L 466 706 L 465 709 L 465 722 L 469 723 Q 473 722 472 725 L 476 726 L 481 726 L 488 722 L 491 722 L 492 719 L 495 718 Q 493 712 497 713 L 498 712 L 499 704 L 501 702 L 502 700 L 538 700 L 538 704 L 541 708 Q 540 714 544 716 Q 547 715 545 721 L 557 726 L 566 726 L 572 722 L 574 722 L 575 720 L 575 713 Q 571 711 572 704 L 569 702 L 569 696 L 568 695 L 568 693 L 566 693 L 566 688 L 563 686 L 562 681 L 562 679 L 559 679 L 559 672 L 556 670 Q 557 665 555 663 L 553 663 L 553 656 L 550 654 L 550 648 Q 546 645 546 638 L 543 635 Q 544 629 542 628 L 540 628 L 540 621 L 537 619 L 536 611 Q 534 608 529 609 L 526 607 L 515 607 L 514 606 Z M 592 606 L 591 607 Q 587 606 588 609 L 585 609 L 583 611 L 583 686 L 580 693 L 580 706 L 582 711 Q 585 712 581 714 L 583 719 Q 587 718 589 722 L 606 722 L 607 723 L 639 722 L 640 721 Q 642 722 641 719 L 650 719 L 653 716 Q 657 717 658 715 Q 657 712 661 713 L 661 712 L 665 709 Q 664 704 668 706 L 668 703 L 671 702 Q 670 699 674 700 L 674 697 L 678 695 Q 676 689 680 690 L 681 689 L 681 674 L 684 673 L 684 658 L 683 657 Q 684 654 681 655 L 681 644 Q 677 643 678 637 L 670 625 Q 667 626 668 624 L 665 622 L 663 618 Q 660 619 661 616 L 656 615 L 653 612 L 643 612 L 642 611 L 641 609 L 624 609 L 617 607 L 592 606 Z M 705 606 L 700 609 Q 693 608 692 611 Q 693 614 690 613 L 689 616 L 689 718 Q 690 720 695 719 L 698 722 L 746 722 L 747 723 L 749 722 L 761 722 Q 761 719 766 719 L 767 718 L 767 701 L 765 699 L 763 696 L 760 695 L 724 696 L 722 695 L 722 678 L 726 677 L 747 677 L 750 675 L 759 674 L 761 671 L 761 663 Q 757 662 758 656 L 748 650 L 739 651 L 737 653 L 723 653 L 722 651 L 719 650 L 719 640 L 721 639 L 722 636 L 739 636 L 742 633 L 762 633 L 764 631 L 764 612 L 762 609 L 717 609 Q 713 605 705 606 Z M 783 606 L 775 609 L 772 612 L 772 618 L 775 621 L 775 626 L 778 630 L 778 634 Q 782 636 782 642 L 785 645 Q 783 650 787 652 L 788 653 L 788 660 L 791 661 L 791 669 L 792 670 Q 791 672 794 671 L 794 679 L 797 682 L 798 689 L 801 690 Q 799 698 804 701 L 804 708 L 807 709 Q 806 715 808 718 L 811 719 Q 815 717 814 721 L 816 722 Q 822 720 824 723 L 831 723 L 838 721 Q 840 722 839 719 L 841 719 Q 839 715 843 716 L 846 709 L 847 709 L 847 700 L 849 700 L 853 692 L 854 685 L 857 681 L 857 675 L 860 672 L 860 666 L 863 663 L 863 656 L 865 655 L 867 650 Q 865 644 869 645 L 870 639 L 873 636 L 873 629 L 876 626 L 876 611 L 868 606 L 858 606 L 855 609 Q 850 608 849 611 Q 850 614 847 613 L 845 620 L 845 625 L 842 628 L 842 635 L 839 637 L 839 644 L 838 644 Q 834 646 836 653 L 833 656 Q 835 662 831 661 L 826 677 Q 826 672 822 671 L 822 663 L 819 660 Q 820 653 817 650 L 815 650 L 815 643 L 812 641 L 812 634 L 809 631 L 809 625 L 806 622 L 806 617 L 802 612 L 802 609 Q 794 611 791 606 L 783 606 Z " /><path fill="rgb(0,0,0)" stroke="rgb(0,0,0)" stroke-width="1" opacity="0" d="M 615.5 632 L 618.5 633 L 633.5 633 L 635 634.5 L 635 636 L 640.5 636 L 641 637.5 L 647 641.5 Q 646.5 646 650 646.5 L 650 651.5 L 653 660.5 L 653 666.5 L 651 669.5 L 650 678.5 L 647 681.5 L 647 686 L 644 686 Q 645.5 689.7 642.5 689 L 641 692 L 637 693.5 Q 637.6 696.3 631.5 695 L 629 696 L 628.5 698 L 614 698 L 613 694.5 L 614 693.5 L 614 667.5 L 613 666.5 L 613 656.5 L 611 653.5 L 611 633 L 615.5 632 Z " /><path fill="rgb(0,0,0)" stroke="rgb(0,0,0)" stroke-width="1" opacity="0" d="M 518 651 L 522 652 Q 521.1 658.2 523 661 L 525 661.5 L 525 670 Q 522.3 668.9 523 671.5 L 521.5 673 L 511 673 L 511 662.5 L 512.5 662 Q 517.3 657.9 518 651 Z " /><path fill="rgb(0,0,0)" stroke="rgb(0,0,0)" stroke-width="1" opacity="0" d="M 204 652 Q 206.7 650.9 206 653.5 L 209 655 L 209 660.5 Q 213.3 663 212 670 L 209 670 L 208.5 673 L 197 673 L 196 670.5 Q 199 668.5 198 662.5 L 201 659.5 L 201 655 L 204 653.5 L 204 652 Z " /><path fill="rgb(199,224,246)" stroke="rgb(199,224,246)" stroke-width="1" opacity="0.7803921568627451" d="M 493.5 239 L 498 239.5 L 493.5 240 L 493.5 239 Z " /><path fill="rgb(199,224,246)" stroke="rgb(199,224,246)" stroke-width="1" opacity="0.7803921568627451" d="M 491.5 240 L 489.5 243 L 491.5 240 Z " /><path fill="rgb(199,224,246)" stroke="rgb(199,224,246)" stroke-width="1" opacity="0.7803921568627451" d="M 533.5 241 L 534.5 243 L 533.5 241 Z " /><path fill="rgb(199,224,246)" stroke="rgb(199,224,246)" stroke-width="1" opacity="0.7803921568627451" d="M 624.5 341 L 629 341.5 L 624.5 342 L 624.5 341 Z " /><path fill="rgb(199,224,246)" stroke="rgb(199,224,246)" stroke-width="1" opacity="0.7803921568627451" d="M 393.5 342 L 392.5 344 L 393.5 342 Z " /><path fill="rgb(199,224,246)" stroke="rgb(199,224,246)" stroke-width="1" opacity="0.7803921568627451" d="M 401.5 342 L 412.5 354 L 401.5 342 Z " /><path fill="rgb(199,224,246)" stroke="rgb(199,224,246)" stroke-width="1" opacity="0.7803921568627451" d="M 622.5 342 L 621.5 344 L 622.5 342 Z " /><path fill="rgb(199,224,246)" stroke="rgb(199,224,246)" stroke-width="1" opacity="0.7803921568627451" d="M 631.5 342 L 632.5 344 L 631.5 342 Z " /><path fill="rgb(199,224,246)" stroke="rgb(199,224,246)" stroke-width="1" opacity="0.7803921568627451" d="M 649.5 360 L 672.5 384 L 649.5 360 Z " /><path fill="rgb(199,224,246)" stroke="rgb(199,224,246)" stroke-width="1" opacity="0.7803921568627451" d="M 611.5 361 L 612.5 363 L 611.5 361 Z " /><path fill="rgb(199,224,246)" stroke="rgb(199,224,246)" stroke-width="1" opacity="0.7803921568627451" d="M 618.5 369 L 624.5 376 L 618.5 369 Z " /><path fill="rgb(199,224,246)" stroke="rgb(199,224,246)" stroke-width="1" opacity="0.7803921568627451" d="M 403.5 373 L 402.5 375 L 403.5 373 Z " /><path fill="rgb(199,224,246)" stroke="rgb(199,224,246)" stroke-width="1" opacity="0.7803921568627451" d="M 394.5 382 L 389.5 388 L 394.5 382 Z " /><path fill="rgb(199,224,246)" stroke="rgb(199,224,246)" stroke-width="1" opacity="0.7803921568627451" d="M 631.5 383 L 637.5 390 L 631.5 383 Z " /><path fill="rgb(199,224,246)" stroke="rgb(199,224,246)" stroke-width="1" opacity="0.7803921568627451" d="M 674.5 385 L 677.5 389 L 674.5 385 Z " /><path fill="rgb(199,224,246)" stroke="rgb(199,224,246)" stroke-width="1" opacity="0.7803921568627451" d="M 384.5 392 L 383.5 394 L 384.5 392 Z " /><path fill="rgb(199,224,246)" stroke="rgb(199,224,246)" stroke-width="1" opacity="0.7803921568627451" d="M 643.5 396 L 649.5 403 L 643.5 396 Z " /><path fill="rgb(199,224,246)" stroke="rgb(199,224,246)" stroke-width="1" opacity="0.7803921568627451" d="M 482.5 398 L 491 398.5 L 482.5 399 L 482.5 398 Z " /><path fill="rgb(199,224,246)" stroke="rgb(199,224,246)" stroke-width="1" opacity="0.7803921568627451" d="M 538.5 398 L 541 398.5 L 538.5 399 L 538.5 398 Z " /><path fill="rgb(199,224,246)" stroke="rgb(199,224,246)" stroke-width="1" opacity="0.7803921568627451" d="M 375.5 402 L 355 423.5 L 354.5 426 L 354 423.5 L 375.5 402 Z " /><path fill="rgb(199,224,246)" stroke="rgb(199,224,246)" stroke-width="1" opacity="0.7803921568627451" d="M 698.5 409 L 702.5 414 L 698.5 409 Z " /><path fill="rgb(199,224,246)" stroke="rgb(199,224,246)" stroke-width="1" opacity="0.7803921568627451" d="M 320.5 415 L 317.5 419 L 320.5 415 Z " /><path fill="rgb(199,224,246)" stroke="rgb(199,224,246)" stroke-width="1" opacity="0.7803921568627451" d="M 663.5 416 L 667.5 421 L 663.5 416 Z " /><path fill="rgb(199,224,246)" stroke="rgb(199,224,246)" stroke-width="1" opacity="0.7803921568627451" d="M 532.5 425 L 531.5 427 L 532.5 425 Z " /><path fill="rgb(199,224,246)" stroke="rgb(199,224,246)" stroke-width="1" opacity="0.7803921568627451" d="M 665.5 427 L 648.5 445 L 665.5 427 Z " /><path fill="rgb(199,224,246)" stroke="rgb(199,224,246)" stroke-width="1" opacity="0.7803921568627451" d="M 705.5 427 L 704.5 429 L 705.5 427 Z " /><path fill="rgb(199,224,246)" stroke="rgb(199,224,246)" stroke-width="1" opacity="0.7803921568627451" d="M 366.5 436 L 384.5 455 L 366.5 436 Z " /><path fill="rgb(199,224,246)" stroke="rgb(199,224,246)" stroke-width="1" opacity="0.7803921568627451" d="M 405.5 438 L 406 442.5 L 405 442.5 L 405.5 438 Z " /><path fill="rgb(199,224,246)" stroke="rgb(199,224,246)" stroke-width="1" opacity="0.7803921568627451" d="M 688.5 444 L 655.5 478 L 688.5 444 Z " /><path fill="rgb(199,224,246)" stroke="rgb(199,224,246)" stroke-width="1" opacity="0.7803921568627451" d="M 409.5 446 L 411.5 449 L 409.5 446 Z " /><path fill="rgb(199,224,246)" stroke="rgb(199,224,246)" stroke-width="1" opacity="0.7803921568627451" d="M 414.5 450 L 416.5 453 L 414.5 450 Z " /><path fill="rgb(199,224,246)" stroke="rgb(199,224,246)" stroke-width="1" opacity="0.7803921568627451" d="M 419.5 454 L 421.5 457 L 419.5 454 Z " /><path fill="rgb(199,224,246)" stroke="rgb(199,224,246)" stroke-width="1" opacity="0.7803921568627451" d="M 424.5 458 L 426.5 461 L 424.5 458 Z " /><path fill="rgb(199,224,246)" stroke="rgb(199,224,246)" stroke-width="1" opacity="0.7803921568627451" d="M 434.5 461 L 433.5 463 L 434.5 461 Z " /><path fill="rgb(199,224,246)" stroke="rgb(199,224,246)" stroke-width="1" opacity="0.7803921568627451" d="M 401.5 470 L 402.5 472 L 401.5 470 Z " /><path fill="rgb(199,224,246)" stroke="rgb(199,224,246)" stroke-width="1" opacity="0.7803921568627451" d="M 404.5 473 L 416.5 486 L 404.5 473 Z " /><path fill="rgb(199,224,246)" stroke="rgb(199,224,246)" stroke-width="1" opacity="0.7803921568627451" d="M 367.5 478 L 370.5 482 L 367.5 478 Z " /><path fill="rgb(199,224,246)" stroke="rgb(199,224,246)" stroke-width="1" opacity="0.7803921568627451" d="M 653.5 479 L 652.5 481 L 653.5 479 Z " /><path fill="rgb(199,224,246)" stroke="rgb(199,224,246)" stroke-width="1" opacity="0.7803921568627451" d="M 650.5 482 L 649.5 484 L 650.5 482 Z " /><path fill="rgb(199,224,246)" stroke="rgb(199,224,246)" stroke-width="1" opacity="0.7803921568627451" d="M 646.5 486 L 632.5 501 L 646.5 486 Z " /><path fill="rgb(199,224,246)" stroke="rgb(199,224,246)" stroke-width="1" opacity="0.7803921568627451" d="M 376.5 487 L 389.5 501 L 376.5 487 Z " /><path fill="rgb(199,224,246)" stroke="rgb(199,224,246)" stroke-width="1" opacity="0.7803921568627451" d="M 417.5 487 L 418 490.5 L 417 490.5 L 417.5 487 Z " /><path fill="rgb(199,224,246)" stroke="rgb(199,224,246)" stroke-width="1" opacity="0.7803921568627451" d="M 607.5 502 L 608.5 504 L 607.5 502 Z " /><path fill="rgb(199,224,246)" stroke="rgb(199,224,246)" stroke-width="1" opacity="0.7803921568627451" d="M 395.5 504 L 398 504.5 L 395.5 505 L 395.5 504 Z " /><path fill="rgb(199,224,246)" stroke="rgb(199,224,246)" stroke-width="1" opacity="0.7803921568627451" d="M 199.5 611 L 215 611.5 L 199.5 612 L 199.5 611 Z " /><path fill="rgb(199,224,246)" stroke="rgb(199,224,246)" stroke-width="1" opacity="0.7803921568627451" d="M 378.5 611 L 384 611.5 L 378.5 612 L 378.5 611 Z " /><path fill="rgb(199,224,246)" stroke="rgb(199,224,246)" stroke-width="1" opacity="0.7803921568627451" d="M 392.5 611 L 393.5 613 L 392.5 611 Z " /><path fill="rgb(199,224,246)" stroke="rgb(199,224,246)" stroke-width="1" opacity="0.7803921568627451" d="M 437.5 611 L 442 611.5 L 437.5 612 L 437.5 611 Z " /><path fill="rgb(199,224,246)" stroke="rgb(199,224,246)" stroke-width="1" opacity="0.7803921568627451" d="M 509.5 611 L 512 611.5 L 509.5 612 L 509.5 611 Z " /><path fill="rgb(199,224,246)" stroke="rgb(199,224,246)" stroke-width="1" opacity="0.7803921568627451" d="M 515.5 611 L 529 611.5 L 515.5 612 L 515.5 611 Z " /><path fill="rgb(199,224,246)" stroke="rgb(199,224,246)" stroke-width="1" opacity="0.7803921568627451" d="M 782.5 611 L 786 611.5 L 782.5 612 L 782.5 611 Z " /><path fill="rgb(199,224,246)" stroke="rgb(199,224,246)" stroke-width="1" opacity="0.7803921568627451" d="M 787.5 611 L 794 611.5 L 787.5 612 L 787.5 611 Z " /><path fill="rgb(199,224,246)" stroke="rgb(199,224,246)" stroke-width="1" opacity="0.7803921568627451" d="M 867.5 611 L 870 611.5 L 867.5 612 L 867.5 611 Z " /><path fill="rgb(199,224,246)" stroke="rgb(199,224,246)" stroke-width="1" opacity="0.7803921568627451" d="M 375.5 612 L 374.5 614 L 375.5 612 Z " /><path fill="rgb(199,224,246)" stroke="rgb(199,224,246)" stroke-width="1" opacity="0.7803921568627451" d="M 530.5 612 L 531.5 614 L 530.5 612 Z " /><path fill="rgb(199,224,246)" stroke="rgb(199,224,246)" stroke-width="1" opacity="0.7803921568627451" d="M 631.5 612 L 635 612.5 L 631.5 613 L 631.5 612 Z " /><path fill="rgb(199,224,246)" stroke="rgb(199,224,246)" stroke-width="1" opacity="0.7803921568627451" d="M 696.5 612 L 696 613.5 L 695.5 716 L 695 613.5 L 696.5 612 Z " /><path fill="rgb(199,224,246)" stroke="rgb(199,224,246)" stroke-width="1" opacity="0.7803921568627451" d="M 797.5 612 L 798.5 614 L 797.5 612 Z " /><path fill="rgb(199,224,246)" stroke="rgb(199,224,246)" stroke-width="1" opacity="0.7803921568627451" d="M 274.5 613 L 275 615.5 L 274 615.5 L 274.5 613 Z " /><path fill="rgb(199,224,246)" stroke="rgb(199,224,246)" stroke-width="1" opacity="0.7803921568627451" d="M 454.5 615 L 452.5 618 L 454.5 615 Z " /><path fill="rgb(199,224,246)" stroke="rgb(199,224,246)" stroke-width="1" opacity="0.7803921568627451" d="M 352.5 618 L 353 623.5 L 352 623.5 L 352.5 618 Z " /><path fill="rgb(199,224,246)" stroke="rgb(199,224,246)" stroke-width="1" opacity="0.7803921568627451" d="M 429.5 618 L 424.5 624 L 429.5 618 Z " /><path fill="rgb(199,224,246)" stroke="rgb(199,224,246)" stroke-width="1" opacity="0.7803921568627451" d="M 656.5 620 L 657.5 622 L 656.5 620 Z " /><path fill="rgb(199,224,246)" stroke="rgb(199,224,246)" stroke-width="1" opacity="0.7803921568627451" d="M 449.5 621 L 445.5 626 L 449.5 621 Z " /><path fill="rgb(199,224,246)" stroke="rgb(199,224,246)" stroke-width="1" opacity="0.7803921568627451" d="M 760.5 621 L 761 626.5 L 760 626.5 L 760.5 621 Z " /><path fill="rgb(199,224,246)" stroke="rgb(199,224,246)" stroke-width="1" opacity="0.7803921568627451" d="M 660.5 623 L 665.5 629 L 660.5 623 Z " /><path fill="rgb(199,224,246)" stroke="rgb(199,224,246)" stroke-width="1" opacity="0.7803921568627451" d="M 350.5 627 L 349.5 629 L 350.5 627 Z " /><path fill="rgb(199,224,246)" stroke="rgb(199,224,246)" stroke-width="1" opacity="0.7803921568627451" d="M 608.5 628 L 611 628.5 L 608 629 L 607.5 701 L 607 629.5 L 608.5 628 Z " /><path fill="rgb(199,224,246)" stroke="rgb(199,224,246)" stroke-width="1" opacity="0.7803921568627451" d="M 626.5 628 L 630 628.5 L 626.5 629 L 626.5 628 Z " /><path fill="rgb(199,224,246)" stroke="rgb(199,224,246)" stroke-width="1" opacity="0.7803921568627451" d="M 419.5 629 L 417.5 632 L 419.5 629 Z " /><path fill="rgb(199,224,246)" stroke="rgb(199,224,246)" stroke-width="1" opacity="0.7803921568627451" d="M 442.5 629 L 438.5 634 L 442.5 629 Z " /><path fill="rgb(199,224,246)" stroke="rgb(199,224,246)" stroke-width="1" opacity="0.7803921568627451" d="M 717.5 629 L 758 629.5 L 717.5 630 L 716.5 631 L 717.5 629 Z " /><path fill="rgb(199,224,246)" stroke="rgb(199,224,246)" stroke-width="1" opacity="0.7803921568627451" d="M 347.5 631 L 346.5 633 L 347.5 631 Z " /><path fill="rgb(199,224,246)" stroke="rgb(199,224,246)" stroke-width="1" opacity="0.7803921568627451" d="M 667.5 631 L 668.5 633 L 667.5 631 Z " /><path fill="rgb(199,224,246)" stroke="rgb(199,224,246)" stroke-width="1" opacity="0.7803921568627451" d="M 645.5 634 L 648.5 638 L 645.5 634 Z " /><path fill="rgb(199,224,246)" stroke="rgb(199,224,246)" stroke-width="1" opacity="0.7803921568627451" d="M 669.5 634 L 670.5 636 L 669.5 634 Z " /><path fill="rgb(199,224,246)" stroke="rgb(199,224,246)" stroke-width="1" opacity="0.7803921568627451" d="M 320.5 635 L 319.5 637 L 320.5 635 Z " /><path fill="rgb(199,224,246)" stroke="rgb(199,224,246)" stroke-width="1" opacity="0.7803921568627451" d="M 344.5 635 L 343.5 637 L 344.5 635 Z " /><path fill="rgb(199,224,246)" stroke="rgb(199,224,246)" stroke-width="1" opacity="0.7803921568627451" d="M 413.5 636 L 408.5 642 L 413.5 636 Z " /><path fill="rgb(199,224,246)" stroke="rgb(199,224,246)" stroke-width="1" opacity="0.7803921568627451" d="M 317.5 639 L 316.5 641 L 317.5 639 Z " /><path fill="rgb(199,224,246)" stroke="rgb(199,224,246)" stroke-width="1" opacity="0.7803921568627451" d="M 341.5 639 L 340.5 641 L 341.5 639 Z " /><path fill="rgb(199,224,246)" stroke="rgb(199,224,246)" stroke-width="1" opacity="0.7803921568627451" d="M 433.5 639 L 429.5 644 L 433.5 639 Z " /><path fill="rgb(199,224,246)" stroke="rgb(199,224,246)" stroke-width="1" opacity="0.7803921568627451" d="M 338.5 643 L 337.5 645 L 338.5 643 Z " /><path fill="rgb(199,224,246)" stroke="rgb(199,224,246)" stroke-width="1" opacity="0.7803921568627451" d="M 312.5 646 L 311.5 648 L 312.5 646 Z " /><path fill="rgb(199,224,246)" stroke="rgb(199,224,246)" stroke-width="1" opacity="0.7803921568627451" d="M 335.5 647 L 334.5 649 L 335.5 647 Z " /><path fill="rgb(199,224,246)" stroke="rgb(199,224,246)" stroke-width="1" opacity="0.7803921568627451" d="M 401.5 649 L 396.5 655 L 401.5 649 Z " /><path fill="rgb(199,224,246)" stroke="rgb(199,224,246)" stroke-width="1" opacity="0.7803921568627451" d="M 309.5 650 L 308.5 652 L 309.5 650 Z " /><path fill="rgb(199,224,246)" stroke="rgb(199,224,246)" stroke-width="1" opacity="0.7803921568627451" d="M 422.5 651 L 417.5 657 L 422.5 651 Z " /><path fill="rgb(199,224,246)" stroke="rgb(199,224,246)" stroke-width="1" opacity="0.7803921568627451" d="M 676.5 652 L 677 654.5 L 676 654.5 L 676.5 652 Z " /><path fill="rgb(199,224,246)" stroke="rgb(199,224,246)" stroke-width="1" opacity="0.7803921568627451" d="M 306.5 654 L 305.5 656 L 306.5 654 Z " /><path fill="rgb(199,224,246)" stroke="rgb(199,224,246)" stroke-width="1" opacity="0.7803921568627451" d="M 330.5 654 L 329.5 656 L 330.5 654 Z " /><path fill="rgb(199,224,246)" stroke="rgb(199,224,246)" stroke-width="1" opacity="0.7803921568627451" d="M 716.5 654 L 717.5 655 L 752 655.5 L 717.5 656 L 716.5 654 Z " /><path fill="rgb(199,224,246)" stroke="rgb(199,224,246)" stroke-width="1" opacity="0.7803921568627451" d="M 327.5 658 L 326.5 660 L 327.5 658 Z " /><path fill="rgb(199,224,246)" stroke="rgb(199,224,246)" stroke-width="1" opacity="0.7803921568627451" d="M 753.5 659 L 754 662.5 L 753 662.5 L 753.5 659 Z " /><path fill="rgb(199,224,246)" stroke="rgb(199,224,246)" stroke-width="1" opacity="0.7803921568627451" d="M 301.5 661 L 300.5 663 L 301.5 661 Z " /><path fill="rgb(199,224,246)" stroke="rgb(199,224,246)" stroke-width="1" opacity="0.7803921568627451" d="M 325.5 661 L 323.5 664 L 325.5 661 Z " /><path fill="rgb(199,224,246)" stroke="rgb(199,224,246)" stroke-width="1" opacity="0.7803921568627451" d="M 322.5 665 L 321.5 667 L 322.5 665 Z " /><path fill="rgb(199,224,246)" stroke="rgb(199,224,246)" stroke-width="1" opacity="0.7803921568627451" d="M 296.5 668 L 295.5 670 L 296.5 668 Z " /><path fill="rgb(199,224,246)" stroke="rgb(199,224,246)" stroke-width="1" opacity="0.7803921568627451" d="M 423.5 668 L 424.5 670 L 423.5 668 Z " /><path fill="rgb(199,224,246)" stroke="rgb(199,224,246)" stroke-width="1" opacity="0.7803921568627451" d="M 319.5 669 L 318.5 671 L 319.5 669 Z " /><path fill="rgb(199,224,246)" stroke="rgb(199,224,246)" stroke-width="1" opacity="0.7803921568627451" d="M 293.5 672 L 292.5 674 L 293.5 672 Z " /><path fill="rgb(199,224,246)" stroke="rgb(199,224,246)" stroke-width="1" opacity="0.7803921568627451" d="M 426.5 672 L 427.5 674 L 426.5 672 Z " /><path fill="rgb(199,224,246)" stroke="rgb(199,224,246)" stroke-width="1" opacity="0.7803921568627451" d="M 717.5 672 L 751 672.5 L 717.5 673 L 717.5 672 Z " /><path fill="rgb(199,224,246)" stroke="rgb(199,224,246)" stroke-width="1" opacity="0.7803921568627451" d="M 190.5 674 L 193 675.5 L 191.5 676 L 190.5 674 Z " /><path fill="rgb(199,224,246)" stroke="rgb(199,224,246)" stroke-width="1" opacity="0.7803921568627451" d="M 400.5 674 L 399.5 676 L 400.5 674 Z " /><path fill="rgb(199,224,246)" stroke="rgb(199,224,246)" stroke-width="1" opacity="0.7803921568627451" d="M 291.5 675 L 290.5 677 L 291.5 675 Z " /><path fill="rgb(199,224,246)" stroke="rgb(199,224,246)" stroke-width="1" opacity="0.7803921568627451" d="M 428.5 675 L 429.5 677 L 428.5 675 Z " /><path fill="rgb(199,224,246)" stroke="rgb(199,224,246)" stroke-width="1" opacity="0.7803921568627451" d="M 314.5 676 L 313.5 678 L 314.5 676 Z " /><path fill="rgb(199,224,246)" stroke="rgb(199,224,246)" stroke-width="1" opacity="0.7803921568627451" d="M 404.5 676 L 405.5 678 L 404.5 676 Z " /><path fill="rgb(199,224,246)" stroke="rgb(199,224,246)" stroke-width="1" opacity="0.7803921568627451" d="M 288.5 679 L 287.5 681 L 288.5 679 Z " /><path fill="rgb(199,224,246)" stroke="rgb(199,224,246)" stroke-width="1" opacity="0.7803921568627451" d="M 431.5 679 L 432.5 681 L 431.5 679 Z " /><path fill="rgb(199,224,246)" stroke="rgb(199,224,246)" stroke-width="1" opacity="0.7803921568627451" d="M 311.5 680 L 310.5 682 L 311.5 680 Z " /><path fill="rgb(199,224,246)" stroke="rgb(199,224,246)" stroke-width="1" opacity="0.7803921568627451" d="M 407.5 680 L 408.5 682 L 407.5 680 Z " /><path fill="rgb(199,224,246)" stroke="rgb(199,224,246)" stroke-width="1" opacity="0.7803921568627451" d="M 434.5 683 L 436.5 686 L 434.5 683 Z " /><path fill="rgb(199,224,246)" stroke="rgb(199,224,246)" stroke-width="1" opacity="0.7803921568627451" d="M 308.5 684 L 307.5 686 L 308.5 684 Z " /><path fill="rgb(199,224,246)" stroke="rgb(199,224,246)" stroke-width="1" opacity="0.7803921568627451" d="M 411.5 685 L 412.5 687 L 411.5 685 Z " /><path fill="rgb(199,224,246)" stroke="rgb(199,224,246)" stroke-width="1" opacity="0.7803921568627451" d="M 437.5 687 L 439.5 690 L 437.5 687 Z " /><path fill="rgb(199,224,246)" stroke="rgb(199,224,246)" stroke-width="1" opacity="0.7803921568627451" d="M 413.5 688 L 414.5 690 L 413.5 688 Z " /><path fill="rgb(199,224,246)" stroke="rgb(199,224,246)" stroke-width="1" opacity="0.7803921568627451" d="M 649.5 689 L 643.5 696 L 649.5 689 Z " /><path fill="rgb(199,224,246)" stroke="rgb(199,224,246)" stroke-width="1" opacity="0.7803921568627451" d="M 440.5 691 L 442.5 694 L 440.5 691 Z " /><path fill="rgb(199,224,246)" stroke="rgb(199,224,246)" stroke-width="1" opacity="0.7803921568627451" d="M 416.5 692 L 417.5 694 L 416.5 692 Z " /><path fill="rgb(199,224,246)" stroke="rgb(199,224,246)" stroke-width="1" opacity="0.7803921568627451" d="M 185.5 693 L 225 693.5 L 185.5 694 L 185.5 693 Z " /><path fill="rgb(199,224,246)" stroke="rgb(199,224,246)" stroke-width="1" opacity="0.7803921568627451" d="M 278.5 693 L 277.5 695 L 278.5 693 Z " /><path fill="rgb(199,224,246)" stroke="rgb(199,224,246)" stroke-width="1" opacity="0.7803921568627451" d="M 499.5 693 L 538.5 693 L 540 694.5 L 538.5 694 L 499.5 694 L 499.5 693 Z " /><path fill="rgb(199,224,246)" stroke="rgb(199,224,246)" stroke-width="1" opacity="0.7803921568627451" d="M 419.5 696 L 420.5 698 L 419.5 696 Z " /><path fill="rgb(199,224,246)" stroke="rgb(199,224,246)" stroke-width="1" opacity="0.7803921568627451" d="M 444.5 696 L 445.5 698 L 444.5 696 Z " /><path fill="rgb(199,224,246)" stroke="rgb(199,224,246)" stroke-width="1" opacity="0.7803921568627451" d="M 667.5 697 L 666.5 699 L 667.5 697 Z " /><path fill="rgb(199,224,246)" stroke="rgb(199,224,246)" stroke-width="1" opacity="0.7803921568627451" d="M 298.5 698 L 298 699.5 L 297.5 701 L 297 699.5 L 298.5 698 Z " /><path fill="rgb(199,224,246)" stroke="rgb(199,224,246)" stroke-width="1" opacity="0.7803921568627451" d="M 422.5 700 L 423.5 702 L 422.5 700 Z " /><path fill="rgb(199,224,246)" stroke="rgb(199,224,246)" stroke-width="1" opacity="0.7803921568627451" d="M 447.5 700 L 449.5 703 L 447.5 700 Z " /><path fill="rgb(199,224,246)" stroke="rgb(199,224,246)" stroke-width="1" opacity="0.7803921568627451" d="M 717.5 700 L 754 700.5 L 717.5 701 L 717.5 700 Z " /><path fill="rgb(199,224,246)" stroke="rgb(199,224,246)" stroke-width="1" opacity="0.7803921568627451" d="M 759.5 700 L 762 701.5 L 761.5 703 L 761 701 L 759.5 700 Z " /><path fill="rgb(199,224,246)" stroke="rgb(199,224,246)" stroke-width="1" opacity="0.7803921568627451" d="M 351.5 701 L 353 703.5 L 352 703.5 L 351.5 701 Z " /><path fill="rgb(199,224,246)" stroke="rgb(199,224,246)" stroke-width="1" opacity="0.7803921568627451" d="M 610.5 701 L 613 701.5 L 610.5 702 L 610.5 701 Z " /><path fill="rgb(199,224,246)" stroke="rgb(199,224,246)" stroke-width="1" opacity="0.7803921568627451" d="M 623.5 701 L 628 701.5 L 623.5 702 L 623.5 701 Z " /><path fill="rgb(199,224,246)" stroke="rgb(199,224,246)" stroke-width="1" opacity="0.7803921568627451" d="M 425.5 704 L 426.5 706 L 425.5 704 Z " /><path fill="rgb(199,224,246)" stroke="rgb(199,224,246)" stroke-width="1" opacity="0.7803921568627451" d="M 450.5 704 L 451.5 706 L 450.5 704 Z " /><path fill="rgb(199,224,246)" stroke="rgb(199,224,246)" stroke-width="1" opacity="0.7803921568627451" d="M 270.5 705 L 271 708.5 L 270 708.5 L 270.5 705 Z " /><path fill="rgb(199,224,246)" stroke="rgb(199,224,246)" stroke-width="1" opacity="0.7803921568627451" d="M 658.5 706 L 657.5 708 L 658.5 706 Z " /><path fill="rgb(199,224,246)" stroke="rgb(199,224,246)" stroke-width="1" opacity="0.7803921568627451" d="M 428.5 708 L 429.5 710 L 428.5 708 Z " /><path fill="rgb(199,224,246)" stroke="rgb(199,224,246)" stroke-width="1" opacity="0.7803921568627451" d="M 453.5 708 L 455.5 711 L 453.5 708 Z " /><path fill="rgb(199,224,246)" stroke="rgb(199,224,246)" stroke-width="1" opacity="0.7803921568627451" d="M 351.5 712 L 352 714.5 L 351 714.5 L 351.5 712 Z " /><path fill="rgb(199,224,246)" stroke="rgb(199,224,246)" stroke-width="1" opacity="0.7803921568627451" d="M 431.5 712 L 432.5 714 L 431.5 712 Z " /><path fill="rgb(199,224,246)" stroke="rgb(199,224,246)" stroke-width="1" opacity="0.7803921568627451" d="M 761.5 714 L 762 715.5 L 760 716.5 L 761.5 714 Z " /><path fill="rgb(199,224,246)" stroke="rgb(199,224,246)" stroke-width="1" opacity="0.7803921568627451" d="M 270.5 715 L 272.5 718 L 270.5 715 Z " /><path fill="rgb(199,224,246)" stroke="rgb(199,224,246)" stroke-width="1" opacity="0.7803921568627451" d="M 569.5 715 L 570 717.5 L 568 718.5 L 569.5 715 Z " /><path fill="rgb(199,224,246)" stroke="rgb(199,224,246)" stroke-width="1" opacity="0.7803921568627451" d="M 813.5 715 L 814.5 717 L 813.5 715 Z " /><path fill="rgb(199,224,246)" stroke="rgb(199,224,246)" stroke-width="1" opacity="0.7803921568627451" d="M 837.5 715 L 836.5 717 L 837.5 715 Z " /><path fill="rgb(199,224,246)" stroke="rgb(199,224,246)" stroke-width="1" opacity="0.7803921568627451" d="M 350.5 716 L 349.5 718 L 350.5 716 Z " /><path fill="rgb(199,224,246)" stroke="rgb(199,224,246)" stroke-width="1" opacity="0.7803921568627451" d="M 393.5 716 L 392.5 718 L 393.5 716 Z " /><path fill="rgb(199,224,246)" stroke="rgb(199,224,246)" stroke-width="1" opacity="0.7803921568627451" d="M 488.5 716 L 487.5 718 L 488.5 716 Z " /><path fill="rgb(199,224,246)" stroke="rgb(199,224,246)" stroke-width="1" opacity="0.7803921568627451" d="M 816.5 717 L 835 717.5 L 816.5 718 L 816.5 717 Z " /><path fill="rgb(199,224,246)" stroke="rgb(199,224,246)" stroke-width="1" opacity="0.7803921568627451" d="M 276.5 718 L 347 718.5 L 276.5 719 L 276.5 718 Z " /><path fill="rgb(199,224,246)" stroke="rgb(199,224,246)" stroke-width="1" opacity="0.7803921568627451" d="M 554.5 719 L 566 719.5 L 554.5 720 L 554.5 719 Z " /><path fill="rgb(254,254,254)" stroke="rgb(254,254,254)" stroke-width="1" opacity="0.9921568627450981" d="M 498.5 239 L 518.5 239 L 519.5 240 L 522.5 239 Q 531.5 238.5 535 243.5 L 629.5 463 L 641.5 451 L 643 451 L 647.5 445 L 666 427.5 L 669 422.5 L 663.5 416 L 660.5 414 L 627 378.5 L 627 377 Q 624.3 378.1 625 375.5 L 613 363.5 L 610 357.5 Q 612.7 348.2 620.5 344 Q 623.1 340.6 630.5 342 L 647 357.5 L 649 360.5 L 672.5 384 L 674 384 L 677.5 389 L 680 390.5 Q 679.3 392.8 681.5 392 L 696 406.5 L 696 408 Q 698.7 406.9 698 409.5 L 706 419.5 L 706 426.5 L 692.5 441 Q 690.3 440.3 691 442.5 L 655 477.5 Q 655.8 479.8 653.5 479 L 652 482 L 649 483.5 L 647.5 486 L 628.5 504 Q 622.6 506.6 612.5 505 L 607 501.5 L 539 343.5 L 516 286.5 L 511.5 280 L 466 385.5 L 462 398 L 464.5 399 L 490.5 399 L 491.5 398 L 537.5 398 L 543 400.5 Q 538 417 529.5 430 L 526.5 431 L 448.5 431 L 446 433.5 L 438 454.5 L 432.5 463 L 427.5 461 L 406 443.5 L 407 434.5 L 454 327.5 L 487 247.5 L 492.5 240 Q 497.3 241.3 498.5 239 Z " /><path fill="rgb(254,254,254)" stroke="rgb(254,254,254)" stroke-width="1" opacity="0.9921568627450981" d="M 396.5 341 L 400.5 342 L 413 354.5 L 414 361.5 Q 411 369 404.5 373 L 402 374.5 L 400 377.5 L 389 387.5 L 387.5 390 L 384.5 392 L 354 423.5 L 354 426 L 356 426 Q 354.9 428.7 357.5 428 L 384.5 455 L 386 455 Q 384.9 457.7 387.5 457 L 417 486.5 L 417 491.5 L 410.5 499 Q 408.3 498.3 409 500.5 Q 407.1 506.1 398.5 505 L 392.5 503 L 371 482.5 L 367.5 478 L 365 476.5 Q 365.8 474.3 363.5 475 L 360 470 L 358.5 470 L 345 456.5 Q 345.8 454.3 343.5 455 L 319 430.5 Q 316.1 426.9 317 419.5 L 322.5 413 Q 324.8 413.8 324 411.5 L 357.5 378 L 359 378 L 360.5 375 Q 362.8 375.8 362 373.5 L 365 372 L 365 370.5 L 379.5 356 Q 381.8 356.8 381 354.5 L 389.5 346 L 391 346 Q 389.9 343.3 392.5 344 L 396.5 341 Z " /><path fill="rgb(254,254,254)" stroke="rgb(254,254,254)" stroke-width="1" opacity="0.9921568627450981" d="M 196.5 611 L 199.5 612 L 215.5 612 L 217 613.5 L 256 716.5 L 252.5 719 L 239.5 719 L 235 716.5 L 229 699.5 L 224.5 693 L 185.5 693 L 183 694 L 177 712.5 L 173.5 718 Q 167.6 720.6 157.5 719 L 154 716.5 L 158 708.5 L 190 620.5 L 194.5 612 L 196.5 611 Z M 205 633 L 192 666 L 190 675 L 192 676 L 219 676 L 217 667 L 205 633 Z " /><path fill="rgb(254,254,254)" stroke="rgb(254,254,254)" stroke-width="1" opacity="0.9921568627450981" d="M 384.5 611 Q 392.2 609.2 394 613.5 L 394 653.5 L 395.5 655 L 402 649.5 L 435.5 612 L 451.5 611 L 455 612 L 455 614.5 L 452 618.5 L 417 656.5 L 417 660.5 L 457 712.5 L 458 717 Q 452 720.6 439.5 719 L 433 714.5 L 402.5 674 L 400.5 674 L 394 680.5 L 394 715.5 L 391.5 718 Q 385.6 720.6 375.5 719 L 374 717.5 L 374 614.5 L 376.5 612 Q 382.8 613.7 384.5 611 Z " /><path fill="rgb(254,254,254)" stroke="rgb(254,254,254)" stroke-width="1" opacity="0.9921568627450981" d="M 512.5 611 Q 518.8 613.7 529.5 612 L 532 614.5 L 567 708.5 L 569 717.5 L 567.5 719 L 552.5 719 L 549 718 L 543 700.5 L 538.5 693 L 499.5 693 L 496 695.5 L 490 713.5 L 486.5 718 L 484.5 719 L 471.5 719 L 468 716.5 L 504 620.5 L 508.5 612 L 512.5 611 Z M 519 633 L 504 672 L 504 675 L 506 676 L 533 676 L 519 633 Z " /><path fill="rgb(254,254,254)" stroke="rgb(254,254,254)" stroke-width="1" opacity="0.9921568627450981" d="M 786.5 611 L 787.5 612 L 796.5 612 L 799 614.5 L 825 691 Q 827.7 692.1 827 689.5 L 853 613.5 L 854.5 612 L 866.5 611 L 873 613.5 L 839 712.5 L 835.5 717 L 815.5 717 L 813 714.5 L 785 633.5 L 779 619.5 L 778 613 L 786.5 611 Z " /><path fill="rgb(254,254,254)" stroke="rgb(254,254,254)" stroke-width="1" opacity="0.9921568627450981" d="M 275 612 L 349.5 612 L 352 614.5 Q 353.7 622.7 351 626.5 L 307 685.5 L 297 701 L 350.5 701 L 352 702.5 Q 353.6 713.6 348.5 718 L 273.5 718 L 270 714.5 L 270 709.5 L 272 702.5 L 321 635.5 L 324 629 L 275.5 629 L 275 627.5 L 274 626.5 L 274 616.5 L 275 612 Z " /><path fill="rgb(254,254,254)" stroke="rgb(254,254,254)" stroke-width="1" opacity="0.9921568627450981" d="M 589.5 612 L 630.5 612 Q 632 614.5 637.5 613 Q 656.9 617.1 667 630.5 L 674 642.5 L 676 649.5 Q 674.7 654.3 677 655.5 L 677 673.5 Q 673.5 695 659.5 706 Q 650.7 713.7 637.5 717 Q 632.8 715.8 631.5 718 L 589.5 718 L 588 716.5 L 588 613.5 L 589.5 612 Z M 609 628 L 607 630 L 607 701 L 611 702 L 628 702 L 639 699 L 644 696 Q 651 691 654 682 L 656 674 L 656 665 L 657 664 L 656 663 L 655 649 L 649 638 Q 644 632 636 629 Q 631 630 630 628 L 609 628 Z " /><path fill="rgb(254,254,254)" stroke="rgb(254,254,254)" stroke-width="1" opacity="0.9921568627450981" d="M 697.5 612 L 756.5 612 L 760 614.5 L 760 627.5 L 758.5 629 L 717.5 629 L 716 630.5 L 716 654.5 L 717.5 656 L 752.5 656 Q 753.8 656.3 753 662.5 Q 755.8 664.3 754 670.5 L 752.5 672 L 717.5 672 L 716 673.5 L 716 699.5 L 717.5 701 L 753.5 701 L 758.5 700 L 761 701 Q 763.3 704.6 762 713.5 L 759.5 717 L 756.5 718 L 697.5 718 L 696 716.5 L 696 613.5 L 697.5 612 Z " /></svg>